PathFileType	3	(X/Y/Z)	results
DataRate	CameraRate	NumFrames	NumMarkers	Units	OrigDataRate	OrigDataStartFrame	OrigNumFrames
30.0	30.0	4	85	mm	30.0	1	233
Frame#	Time	head			nose			neck			shoulder_r			elbow_r			wrist_r			shoulder_l			elbow_l			wrist_l			hip_r			knee_r			ankle_r			hip_l			knee_l			ankle_l			heel_r			heel_l			mtoe_r			ltoe_r			mtoe_l			ltoe_l			asis_l			asis_r			psi_r			psi_l			mhnd_r			lhnd_r			mhnd_l			lhnd_l			l_lat_knee			r_med_wrist			l_lat_ankle			r_med_ankle			r_lat_knee			xiphoid			l_med_ankle			r_med_knee			l_med_elbow			navel			r_lat_elbow			r_lat_wrist			l_med_wrist			l_lat_elbow			l_med_knee			r_med_elbow			r_lat_ankle			l_lat_wrist			chin			T10			r_eye			l_eye			l_ear			r_ear			spinal_cord_8			spinal_cord_12			spinal_cord_27			spinal_cord_33			up_arm_r_0			up_arm_r_5			up_arm_l_0			up_arm_l_5			front_torso_11			front_torso_7			front_torso_4			front_torso_1			front_torso_10			thigh_r_2			thigh_r_3			thigh_l_1			thigh_l_5			shank_l_0			shank_l_4			shank_r_1			shank_r_2			foot_r_1			foot_r_3			foot_r_5			foot_r_6			foot_r_7			foot_l_1			foot_l_7			foot_l_0			foot_l_4			foot_l_5			foot_l_6			
		X1	Y1	Z1	X2	Y2	Z2	X3	Y3	Z3	X4	Y4	Z4	X5	Y5	Z5	X6	Y6	Z6	X7	Y7	Z7	X8	Y8	Z8	X9	Y9	Z9	X10	Y10	Z10	X11	Y11	Z11	X12	Y12	Z12	X13	Y13	Z13	X14	Y14	Z14	X15	Y15	Z15	X16	Y16	Z16	X17	Y17	Z17	X18	Y18	Z18	X19	Y19	Z19	X20	Y20	Z20	X21	Y21	Z21	X22	Y22	Z22	X23	Y23	Z23	X24	Y24	Z24	X25	Y25	Z25	X26	Y26	Z26	X27	Y27	Z27	X28	Y28	Z28	X29	Y29	Z29	X30	Y30	Z30	X31	Y31	Z31	X32	Y32	Z32	X33	Y33	Z33	X34	Y34	Z34	X35	Y35	Z35	X36	Y36	Z36	X37	Y37	Z37	X38	Y38	Z38	X39	Y39	Z39	X40	Y40	Z40	X41	Y41	Z41	X42	Y42	Z42	X43	Y43	Z43	X44	Y44	Z44	X45	Y45	Z45	X46	Y46	Z46	X47	Y47	Z47	X48	Y48	Z48	X49	Y49	Z49	X50	Y50	Z50	X51	Y51	Z51	X52	Y52	Z52	X53	Y53	Z53	X54	Y54	Z54	X55	Y55	Z55	X56	Y56	Z56	X57	Y57	Z57	X58	Y58	Z58	X59	Y59	Z59	X60	Y60	Z60	X61	Y61	Z61	X62	Y62	Z62	X63	Y63	Z63	X64	Y64	Z64	X65	Y65	Z65	X66	Y66	Z66	X67	Y67	Z67	X68	Y68	Z68	X69	Y69	Z69	X70	Y70	Z70	X71	Y71	Z71	X72	Y72	Z72	X73	Y73	Z73	X74	Y74	Z74	X75	Y75	Z75	X76	Y76	Z76	X77	Y77	Z77	X78	Y78	Z78	X79	Y79	Z79	X80	Y80	Z80	X81	Y81	Z81	X82	Y82	Z82	X83	Y83	Z83	X84	Y84	Z84	X85	Y85	Z85	
1	0.03333333333333333	80.1826015722771	1888.1576250709604	0.6928320019378154	1.1277867951550031	1669.8881252937706	-106.08337156109636	105.34812592339102	1489.1077906566923	53.21372961467874	301.00374123448114	1441.9036375043588	-71.20794287959845	387.5550687987609	1153.3153645244652	-104.23512425378722	256.5333636184346	933.9752999227175	-196.8155157139266	-59.130988680920375	1422.537543118796	162.7084378018558	-58.35578303370667	1173.5297434172578	339.2959355914382	-125.53624429880861	916.941282410781	269.8935803887758	218.01139143226916	896.301524681082	48.62519553674085	327.0595809144803	526.4550069256237	108.2781836449668	446.20266785714045	131.82402254352533	190.29730401957028	7.564973039631259	898.3622763781451	151.0622782563461	-35.865197610373386	530.9274665551753	16.913693391485516	14.485276653837087	115.10472760096462	32.69533112507601	455.2255956039293	77.80856782311739	214.42926647272802	31.77358697374966	52.739954277511295	54.21957027448312	482.5086141042827	25.752179370794096	-10.831280651543985	541.6477792407251	51.913384390029684	54.9224981649575	-132.56360133933842	34.51658695078769	-116.06335171537974	-148.77530771673747	45.6472107803502	-15.299907697946633	-69.7022501645869	960.4536352652513	109.901215348384	240.62861177245787	954.8588137534098	-35.53104690243944	210.69660843353554	1016.4786277340002	165.09280846719642	102.5318009514121	1015.4790787237171	209.6653932970688	249.1812799568617	862.9587149105097	-213.67609973405803	201.48894683599227	877.4609856754013	-233.27629766408486	-137.48557662351791	842.3632908482657	280.3794486048673	-150.30471543949093	842.9705176706901	228.504133865481	-80.55167724276676	524.5578995296762	37.51148590559279	289.83537722993935	926.4100633272747	-195.18017113124284	-30.129142915598955	94.63565510789923	66.16335649824426	413.6601875266123	108.74367677587554	178.9876316010154	370.3506986560825	528.1185115936762	100.68480759753356	47.28315927874832	1289.133167024004	-25.232808139116088	36.409613675964046	104.20963041870357	3.782060280695377	288.0457594890633	509.4746327139448	108.763077693017	-18.343656966817925	1186.2189242606535	339.493380126193	36.0174029538332	1037.9658548388572	-20.76525015672799	389.4883098249704	1166.902346204688	-148.49744728308366	228.57591927621553	956.5639119062008	-185.42932135045535	-131.22694778177134	920.7702303270693	307.415258431052	-102.56299692612397	1187.6897203699382	337.4220717871711	-3.3968817971147813	541.0361354422995	-18.381863697240846	382.6682326092528	1154.3282024951086	-61.80980847844664	500.79649412564754	127.12827034920326	189.50194355177314	-128.68464001304028	935.6989680676215	238.49011675633054	19.44423215364631	1580.6464398253804	-83.23829092708736	171.54243381343832	1314.8599630533677	159.74731691280806	31.664922815731828	1708.073718873903	-130.86856146318232	-35.167166882850196	1706.9399034258215	-81.74606348250866	-13.358118955363665	1708.1023779580894	54.274941114148234	154.40422847722004	1707.3848622188812	-64.90407203202842	136.00139007084402	1559.975346326391	95.25950945902765	168.5291483746753	1429.3883360071502	153.76254031391352	174.7644826279792	1140.0071053432118	147.744720352515	163.19472715902174	1302.9975073771213	148.18536423782558	296.67664969841394	1287.8571173975656	-110.32540005239767	397.18989558896203	1283.024725638559	-91.46665988673148	-92.05442792672213	1376.849209339745	204.85827651180716	-15.432028604572684	1255.9018968771816	308.1998640252021	111.77237563417177	1070.1709355051516	-19.139342727942196	29.355557294771543	1187.692712857732	-48.46984333291714	-24.581505313435407	1343.4266146963196	11.06811928978417	-14.839173691481813	1113.6747229225614	56.66143276242465	122.1479306802746	1383.4123166276722	-100.75399522582708	259.95339043709345	690.3072500207326	80.80829560209763	362.0463987293645	681.5310162992563	75.0931480280255	19.64457955429561	639.9284092624257	35.13603183155825	-101.97155518098825	798.8203496753232	144.379951170121	-65.14590195379313	208.54592885468054	57.39134666184416	25.599280450104885	374.1396100882876	-8.22404781914781	438.73628418353206	375.6415478809253	143.73139647041566	347.82155970784913	307.0484515100169	146.55039336718414	505.23931105648103	28.852304139957653	10.528430024874801	526.6230606285104	40.75754125766516	28.60869389628612	457.31160323647265	48.7091750297409	69.1688178639458	490.4168240417712	68.38982511886935	83.61122947085492	523.2785996824756	66.49364830041615	100.77329479384753	-149.84263487349776	36.4644572197338	-58.909277428319946	-79.07051688495727	78.65351107160227	23.10640907334475	-154.48404613009708	40.87819983234281	-42.471278703375084	-143.65634081785745	31.052779485963978	-78.62907776379588	-102.17936079126054	52.601785121901685	-35.1542506180315	-56.25459030568432	58.60008748141814	-38.552421046381276	
2	0.06666666666666667	44.044154099898066	1887.9864122917902	-10.802747579675822	-33.481195288948896	1667.2386085839487	-113.52870963438598	72.20041922997972	1487.4970306164464	39.1174880688453	253.25183532685668	1446.7706150338029	-95.71807401581879	341.3243229603587	1159.2170087385507	-133.41792471608258	230.57440075722772	929.1699292978053	-226.48067786445924	-85.1888764123379	1434.5137658068488	150.82829097537345	-110.04442474770174	1165.4349998793602	292.84043508801943	-166.01755671112215	899.6734525849458	255.35246257649496	179.6778290507739	893.9413860527353	16.803964064017073	286.62818210745064	522.259224011555	70.28187140350228	433.349055624815	143.88507590061266	179.65195151344003	-23.302106185553367	901.6905759219809	133.09839030954362	-37.52764230384791	525.3140504287662	21.590747073704648	13.121426742856816	109.37747698790245	32.73611645036123	446.4939623602008	92.89602228634794	207.70924237672222	31.626248334262424	46.244817394234886	52.40763693677819	468.21285222814737	21.00297842872751	-12.645528017990209	528.5720737534101	54.769225302416196	48.36278189691098	-140.32596315372498	31.527058451236183	-110.5368340859235	-151.82702496935968	36.19357132873755	-8.625445637754082	-99.16321219003741	970.3954187133636	100.77918699883482	200.36234107491325	956.0829543218588	-65.25299393636207	187.04501369355214	1007.1238736130061	140.0768163484396	82.07888092173707	1009.5404302277684	191.68700157715486	229.72200611327577	857.868111398191	-243.71471285467595	180.76070179671376	867.9905447935926	-262.9336950473701	-180.19695332195616	827.5242726624559	275.55289200299546	-183.72614528957925	819.5023671652636	222.83722867645443	-81.25202326049417	515.6501972107629	43.64073682448069	264.4443793900232	924.7159027241643	-225.09595337010362	-28.352377742224718	88.99502093438427	70.072655006884	402.2323224364738	117.91252515220995	170.88841339579974	329.62433316625373	523.8396187734821	61.71417025138966	13.70709414504022	1287.1962670035336	-38.17018721401019	32.3368536193387	98.44385762427699	1.9695718774462578	247.46040608015105	506.07770475820035	72.69411446835838	-71.44150939554511	1178.6032608016335	302.7619449434027	5.910521995949783	1035.880837339487	-34.755026059843566	342.04397586419987	1173.1992737649448	-177.5934280683205	200.7209822672933	949.0087538354501	-214.78863129421424	-178.16282959959577	909.3748769933276	290.18486103393474	-153.49701100119216	1179.0484878391326	283.6295846148316	-8.524953813876483	535.8609447191798	-16.7807850343315	337.48635560267337	1159.8243549556469	-90.87717290715061	488.1124864423995	142.7225453500369	177.9835027168777	-163.47095802339626	913.0595909204847	221.26042786933743	-12.956883624146057	1578.5828761379787	-90.28259081556659	144.81529958582644	1313.5697430770958	141.926898359142	-4.269168809313953	1705.7296956177133	-139.41414182704986	-69.86260192436599	1703.8578286004206	-88.6713472167638	-44.80028518302768	1706.7852988459294	46.76132907497844	120.01896377954397	1707.9626180155144	-76.45225098180848	103.55839841882515	1558.5369067590393	80.34483082881236	140.07152558501593	1428.0786891000594	136.74582313732998	149.8471221936569	1138.8428228190305	128.76825593161453	136.1740596090753	1301.6601991061232	130.63209668822702	249.21947411077784	1293.034537500994	-136.06888642014547	350.2071324511183	1288.8886575331944	-119.75259908418401	-124.07512879908062	1383.4250635922167	179.5648440026956	-65.08396604315233	1251.685954483173	281.26822657892836	81.24322879745122	1069.0810340283542	-35.91988968615248	-3.7950489608002265	1185.6538782444118	-61.28604174607055	-57.37420978386068	1340.3317931048675	1.2522671361887838	-42.839472234655034	1110.485946469323	45.061207105476896	84.29754955807732	1382.870537318371	-116.01723821970431	220.4230825943729	687.3423810204354	46.55627215116297	322.13591300231786	677.4541848445863	37.10157812725809	7.581072979680754	639.2884527239333	30.315949387565418	-123.29984707589547	792.4362162801648	137.02730844416925	-63.76462722536376	202.98418217213236	64.49450638622851	21.08608785821811	368.4005984625075	-8.984067078180495	408.75737144832	382.306041936508	114.67650756293187	322.7036311866781	308.3436883224483	124.81409971258574	491.50300992334365	26.696674321758625	7.545632902272531	513.07182335587	40.81346853455579	23.713433201459104	444.8691809194376	50.552725217221955	65.73695882321873	477.7926772783545	72.39798099042355	77.16915341697256	511.2250475254877	73.01214047327356	93.29142679034427	-154.7613722722608	29.506255915368317	-52.601674409251146	-81.50130317739622	69.60205788111989	28.271502372534833	-158.72347653001333	32.78196918592712	-35.725565355197205	-149.38701094390612	25.484009081294168	-72.88380413041541	-106.56964311819638	46.078658578876585	-30.25407816451113	-61.11861546652433	54.034938070578924	-35.49940367071268	
3	0.1	10.835630837811063	1887.5080542200471	-19.758655714909903	-67.65292975234985	1666.4803751684212	-121.14261336749148	40.70046481502202	1486.4450824849182	25.970586544547565	212.78184698121177	1449.6596514518392	-116.73995653068768	302.0622382184861	1163.1191801260472	-159.0328441962592	215.58269247236822	921.294819324985	-247.85934216547238	-111.20289475526995	1438.0383279327107	143.8623486399053	-148.19444588135082	1157.8704719403875	259.3016281141553	-200.76827948873708	889.0817035368236	246.8064448398316	144.53483757196216	894.7669902414333	-11.479874129006056	246.8393117851565	519.881794148856	28.80939614413354	414.3107003847003	160.00809039341684	167.01242235382634	-50.07186298257334	902.859136935776	118.32015240837197	-44.61769952643891	521.6780782645194	25.414071035607098	11.053265162223749	106.30848404399661	33.26419633898724	430.1742660715631	112.92381499392299	199.29372713251462	31.099664237436723	42.72022632364944	51.427253181470384	459.1515828765512	20.252725166822916	-12.292966657423603	515.8056695665023	66.15554211450883	44.17520833821445	-145.89528135618062	29.667058197050547	-106.17185892565072	-153.89702468691203	28.425818457150143	-3.8272777875475725	-125.62050016029886	975.2194955314313	94.31649322174665	161.819930006989	960.1382854769633	-91.79542206115072	163.57799875624247	1001.6495969539986	116.09055114529211	62.33426703130773	1004.6546490644923	174.63981623468183	222.43831857586002	850.3117017994134	-265.0664683503649	171.93458281412464	854.5496152779809	-282.4001066932926	-219.6888392645317	820.0841045364102	273.1875090848336	-213.49541911111655	805.2227593034469	222.23135844158554	-87.95014221102562	510.4177013128783	48.01372154691354	249.76923519754277	920.8437156013166	-247.7695136605431	-27.37796306427695	85.56394124676969	73.54127078289041	384.2728541949101	131.9549935542819	161.50101318332105	288.86940529120795	520.8053138374621	16.740614915348505	-18.413523193400312	1285.9123207793734	-50.2356969137326	28.091859968348142	95.51989988094489	1.191627589654229	207.96658317195173	505.1294910908521	36.639299119618386	-113.21037522296893	1171.9048399227163	277.77257402169425	-23.48746203175926	1034.5153923685418	-47.84099850408742	299.8956517996069	1176.9622176809119	-203.20492753560427	184.07536888638242	937.5502689484205	-235.03130936385685	-219.00806238687503	903.1572336222699	277.2056396322497	-189.6377794855467	1170.242259911437	242.34040660277725	-17.503812313690595	531.7003964157817	-14.698500085155427	300.82931795349833	1163.8196146803118	-116.33853864633132	469.00777877156406	161.2077467157339	163.8566349354879	-191.70063814603125	897.9209905416516	212.3450812479063	-45.33790490885137	1577.9340805115135	-99.16394931004318	118.69462478582946	1312.8011652194914	125.25854176215745	-39.78464036477688	1705.4569001530274	-147.77249918443775	-103.57446729539852	1702.5309187823495	-94.82790387962216	-73.91889420779873	1704.9591918401595	39.68362010560407	86.55548526104323	1708.7605351924053	-89.0870308294283	72.75938311597902	1557.6127379856568	66.43132331628188	112.58789499553457	1427.2773917155052	120.8373349114861	125.0636295966685	1138.2016323664554	111.03164198105023	109.78334722193266	1300.8555827238886	114.21440296650745	208.25863323122425	1295.7513231129892	-156.3757552378231	310.10084763371384	1292.9376148942479	-146.26817877956427	-151.99376556673224	1383.2074311952974	160.5255782178303	-106.9753495362468	1246.64987373902	263.0151088991157	51.41002741314192	1068.5105185580069	-51.49122475757327	-35.671102279074816	1184.3032395001326	-73.24210959897478	-88.60324872110671	1338.1090389569972	-8.057849041623392	-70.15608008124262	1108.2219085584813	34.02782879271189	48.390898580109	1382.6939240629304	-130.03063562134065	182.9312317976652	687.1039294041981	13.625792111030197	282.71079563614376	674.6320250380276	-6.8963367740832	-6.381446641115527	637.9705393326889	27.22649974335313	-143.74777556570638	788.5950142293053	129.27612545788776	-64.29187658341209	199.17036077877447	70.44022821699977	13.252466904952207	365.32589184274553	-9.187340355189443	376.6420530983964	390.2323761663852	81.8715535266982	294.533000730678	313.6227047874789	101.04206500222521	481.7411622229161	30.3477455981435	6.951099054968962	501.7898272774197	48.17413058755676	21.309594310026686	432.90940130644276	55.61398420887101	62.692752211225944	463.49861972218036	81.69480263362058	71.4081129341799	496.68763829525733	87.32531882903372	87.05466541281388	-158.14757566235315	23.97481965233402	-47.9788429301297	-83.64916138025521	62.67533463350403	32.44154124878493	-161.6251233851797	26.18228715559519	-30.82467802938192	-153.3530930915701	21.261706553337127	-68.62052332438482	-109.86777332322407	41.294182077091264	-26.40101361129876	-64.98050713139784	51.37373442263563	-32.737234562837074	
4	0.13333333333333333	-18.5446901121739	1888.5889791315956	-30.236232867424807	-100.5811311912977	1667.2551766001054	-128.08185674395347	12.605468415506131	1487.850579791568	14.873227862581773	180.70985300860576	1450.7638350775364	-138.58776459914793	273.8339645172228	1164.7786822693292	-176.07790387839793	214.35912380231449	912.8653086387307	-258.8442953592313	-137.27717584025328	1437.6870044215918	137.33896644483477	-171.4137798847344	1153.7070167351394	244.0099019872556	-228.74965851668205	885.6094663450435	242.05028430177225	113.26752341826892	899.3231963592436	-35.54234715664482	203.98578201284053	519.2711810955898	-17.08346632176755	389.0243114544853	180.70217438837238	149.61265069058473	-72.71306728395028	903.2110570691674	106.51891444940772	-53.77532802291172	519.8454939288391	26.009371902551383	8.64584501213963	105.45701968470289	34.873352391709844	407.35767632845074	138.86382504999793	186.23634028346905	29.91043283503889	41.814997812331406	52.6746310207169	444.8060427460298	23.261181379100368	-12.334033631852147	494.904035538634	84.86749963623187	34.57291253496283	-147.77178891892044	28.087411821414534	-104.09162030979303	-154.95000310404663	23.334686005483174	-1.7888016820169912	-149.32121496730736	976.5246844311042	89.90273313686983	125.71923208505551	967.457173422468	-114.4440836503645	140.7842184642018	1001.5930714514882	94.24382757932052	43.45578585440501	1002.7288888672495	159.15319607727514	229.0245806428531	842.753687795293	-274.6864155717272	178.18868402034695	840.8844741690096	-291.45722085208325	-248.65954294297492	817.9984453777512	271.15291556841566	-243.12536027936895	801.1232590475163	220.75104821934673	-96.41974073535154	507.5009920383883	49.60163483458501	248.37619718900055	916.2794492013993	-259.181385337051	-28.11865796904592	84.41643368825986	76.5291220532557	359.31006393008084	151.77666604993811	149.66303376013954	244.65150019356273	519.5776791877189	-32.75098650047143	-48.784617755435484	1287.5114378033675	-60.03161337877171	24.795467862090263	94.69808495244104	2.334269235872266	166.4022134507327	506.55882649687413	-2.8425549542191035	-136.50190932151062	1167.4699314253535	262.8186233744182	-52.9759272621104	1036.090111941785	-58.74908586148277	270.0507105666801	1177.3853888004928	-220.51048957827297	181.34939309040155	925.7335809899288	-245.94953857231332	-246.50292723871186	901.1389247827058	272.0265856363467	-213.0166240502361	1166.2302724076642	227.5579872753178	-28.260021272918184	529.4695032481933	-15.360649661144574	273.9097796856276	1166.6091254182493	-133.399359417814	443.3131708629022	182.2828871612035	142.30582888879624	-219.80029262759106	892.984258747281	207.21550308966158	-77.61102291102111	1578.771285701346	-106.53090590662586	94.9244673711778	1313.9656429870117	110.16755197236313	-73.59327164378125	1706.1049413718865	-155.78227345759728	-135.5672294191338	1703.4383070557096	-100.71003745892439	-101.39891712348881	1706.3450024853307	32.717010648166955	54.65322887154997	1709.5105809521656	-101.39512177368731	45.98274405347623	1558.918323500012	54.433484780209476	88.293326394954	1428.4418789029078	106.58076630879457	101.28437670554267	1139.462666809107	94.79782098991559	85.6300600018303	1302.0466609716589	99.41428874262922	177.76162585090307	1295.7869728973178	-173.98140356492857	279.902078717445	1295.0141311093116	-167.00664235103477	-177.52548958959702	1381.99286275416	152.3796254335657	-130.98057561956927	1242.69510563139	250.40224539282386	21.617637419339143	1070.3522280562304	-65.11573246413236	-66.60135418338642	1185.963523143573	-82.88132651170662	-117.45321710268131	1339.2598163578912	-14.900752651804142	-96.67311355124488	1109.2247987898756	25.244894949667785	14.58026778737887	1384.9181844156785	-141.8457853817366	146.06472979211588	689.8304719666364	-19.24308079845061	241.79006993375486	674.0221829121082	-52.70088682677709	-20.47817393624926	637.4057588458215	22.901126094131683	-161.49357835453236	785.7823342358672	123.25258079632881	-66.89570397590857	197.41156209605737	73.86197108966836	5.384999201081382	364.15822782032586	-9.39897296568904	340.15538216312666	398.65541364811565	41.080030991284296	261.38428678557915	323.7207760673517	75.11473920808767	466.0135339252481	39.34325553149924	4.22319459443915	483.3238971491315	61.90729861866714	15.044961680531376	415.3713913469795	64.19972612547505	58.5148592311347	441.582154630158	95.69393675023802	62.11728490808002	473.86286308414475	108.56356562810858	75.16936463477849	-159.3922017978958	20.155593237684215	-46.03130973064672	-85.55911766909932	58.657944622728934	35.094681219798375	-162.80780655242089	21.70321574403612	-28.792686435173394	-154.67076687645786	18.256176002976545	-66.78046108098368	-111.52799499416253	38.32580178272375	-24.228475619061733	-67.03557969468191	50.042165054431415	-30.53431022782477	
